<?xml version="1.0" encoding="UTF-8" standalone="no"?>
<!DOCTYPE svg PUBLIC "-//W3C//DTD SVG 1.0//EN"
              "http://www.w3.org/TR/2001/REC-SVG-20010904/DTD/svg10.dtd">

<svg xmlns="http://www.w3.org/2000/svg"
     viewBox="0 0 512 512">
  <path id="Selection"
        fill="white" stroke="white" stroke-width="1"
        d="M 44.00,301.00
           C 38.36,301.00 33.44,301.39 28.00,299.45
             9.46,292.86 0.09,272.59 0.00,254.00
             0.00,254.00 0.00,244.00 0.00,244.00
             0.03,222.94 11.47,201.22 24.21,185.00
             46.99,156.02 66.72,140.43 96.00,118.88
             165.68,67.60 245.32,36.43 329.00,16.77
             358.44,9.85 409.27,1.35 439.00,1.00
             439.00,1.00 454.00,0.00 454.00,0.00
             454.00,0.00 512.00,0.00 512.00,0.00
             510.49,6.16 504.48,14.44 500.95,20.00
             499.42,22.40 497.12,26.29 494.68,27.71
             492.29,29.10 484.10,29.77 481.00,30.15
             481.00,30.15 456.00,34.28 456.00,34.28
             438.92,37.14 401.95,45.90 385.00,50.71
             385.00,50.71 323.00,68.67 323.00,68.67
             248.81,92.88 163.54,133.15 105.00,185.05
             85.76,202.11 63.18,224.18 49.58,246.00
             44.04,254.88 37.43,266.12 38.09,277.00
             38.56,284.67 42.31,293.59 44.00,301.00 Z
           M 362.00,94.00
           C 360.01,100.27 354.40,107.39 350.67,113.00
             350.67,113.00 329.68,145.00 329.68,145.00
             309.92,176.35 291.46,209.52 275.55,243.00
             258.02,279.90 241.64,317.21 228.67,356.00
             215.83,394.36 208.64,418.96 201.42,459.00
             201.42,459.00 197.28,493.00 197.28,493.00
             196.72,497.72 197.08,504.68 194.55,508.85
             189.61,517.02 178.24,508.50 174.10,504.00
             161.88,490.68 161.97,476.67 162.00,460.00
             162.00,460.00 165.72,427.00 165.72,427.00
             169.43,399.50 176.30,370.59 184.28,344.00
             202.48,283.34 223.82,223.11 255.42,168.00
             265.06,151.18 275.08,135.75 287.73,121.00
             295.44,112.01 303.95,103.14 315.00,98.34
             329.39,92.08 346.69,91.98 362.00,94.00 Z" />
</svg>
